PathFileType	4	(X/Y/Z)	/Users/itak/Documents/Research/Walk-IL/dataset/trc/00384_00012.trc
DataRate	CameraRate	NumFrames	NumMarkers	Units	OrigDataRate	OrigDataStartFrame	OrigNumFrames
100.000000	100.000000	4	55	mm	100.000000	278	557
Frame#	Time	RPSI			LPSI			L3			STRN			T10			C7			CLAV			RBAK			LBAK			LSHO			LUPA			LAEL			LAOL			LWTS			LWPS			LFRA			LIFD			LHPS			LHTS			RSHO			RUPA			RAEL			RAOL			RWPS			RFRA			RIFD			RHPS			RBHD			LFHD			RFHD			LBHD			LHIP			RHIP			RASI			LASI			LKNE			LTHI			LANK			LTIP			LTOE			LMT1			LMT5			LHEE			RKNE			RTHI			RANK			RTIP			RTOE			RMT1			RMT5			RHEE			RHTS			RWTS			*53			*54			
		X1	Y1	Z1	X2	Y2	Z2	X3	Y3	Z3	X4	Y4	Z4	X5	Y5	Z5	X6	Y6	Z6	X7	Y7	Z7	X8	Y8	Z8	X9	Y9	Z9	X10	Y10	Z10	X11	Y11	Z11	X12	Y12	Z12	X13	Y13	Z13	X14	Y14	Z14	X15	Y15	Z15	X16	Y16	Z16	X17	Y17	Z17	X18	Y18	Z18	X19	Y19	Z19	X20	Y20	Z20	X21	Y21	Z21	X22	Y22	Z22	X23	Y23	Z23	X24	Y24	Z24	X25	Y25	Z25	X26	Y26	Z26	X27	Y27	Z27	X28	Y28	Z28	X29	Y29	Z29	X30	Y30	Z30	X31	Y31	Z31	X32	Y32	Z32	X33	Y33	Z33	X34	Y34	Z34	X35	Y35	Z35	X36	Y36	Z36	X37	Y37	Z37	X38	Y38	Z38	X39	Y39	Z39	X40	Y40	Z40	X41	Y41	Z41	X42	Y42	Z42	X43	Y43	Z43	X44	Y44	Z44	X45	Y45	Z45	X46	Y46	Z46	X47	Y47	Z47	X48	Y48	Z48	X49	Y49	Z49	X50	Y50	Z50	X51	Y51	Z51	X52	Y52	Z52	X53	Y53	Z53	X54	Y54	Z54	X55	Y55	Z55	

279	2.78	-792.749267578125	969.826904296875	141.7215118408203	-806.1417846679688	967.7344970703125	10.34200000762939	-797.6068725585938	1051.328369140625	73.86286163330078	-557.1076049804688	1204.775634765625	65.61330413818359	-808.1755981445312	1151.63916015625	57.07039260864258	-767.2762451171875	1398.791625976562	48.54148483276367	-612.8373413085938	1323.4755859375	65.71199035644531	-815.9207763671875	1252.426147460938	103.1261978149414	-777.218505859375	1366.215942382812	-54.08599472045898	-688.26171875	1386.863403320312	-96.57381439208984	-707.87744140625	1275.467529296875	-176.1149139404297	-665.5776977539062	1091.049072265625	-223.8685913085938	-715.1348266601562	1051.775146484375	-164.7962036132812	-484.7083435058594	960.5444946289062	-208.3612518310547	-523.983154296875	926.7094116210938	-272.786865234375	-611.5505981445312	1012.178649902344	-245.9241790771484	-380.6498413085938	818.5287475585938	-235.2731018066406	-460.3994140625	867.0668334960938	-277.2398071289062	-415.02392578125	897.3076782226562	-243.4273986816406	-730.1454467773438	1375.642456054688	207.365234375	-760.928466796875	1313.814086914062	258.1875305175781	-806.1609497070312	1055.225952148438	280.1549682617188	-790.6321411132812	1046.794677734375	186.8637542724609	-776.8994750976562	823.4024047851562	336.4837341308594	-799.41357421875	988.5732421875	304.0593872070312	-744.2965087890625	654.9310302734375	297.2048034667969	-787.684326171875	733.7178344726562	335.5419311523438	-719.5517578125	1585.6513671875	147.5092926025391	-572.3640747070312	1583.17431640625	12.72716808319092	-587.5810546875	1585.539794921875	135.0431060791016	-718.8189086914062	1582.2041015625	-14.90052032470703	-729.2255859375	954.2501220703125	-115.6907348632812	-697.1378173828125	951.6072998046875	245.5779113769531	-574.9515991210938	963.7654418945312	176.0787048339844	-611.6448364257812	947.8305053710938	-84.01110076904297	-737.9700927734375	460.3544311523438	-62.25690078735352	-726.8434448242188	603.2557983398438	-86.61043548583984	-887.5178833007812	43.5923957824707	12.27734851837158	-814.5755004882812	235.9374694824219	-34.90690994262695	-678.9366455078125	45.95396423339844	94.43278503417969	-760.3710327148438	47.94113540649414	117.3524398803711	-760.372314453125	40.56317520141602	11.12921142578125	-928.6484985351562	46.89482116699219	65.7122802734375	-470.7831115722656	508.2715454101562	200.5628662109375	-555.4588012695312	756.4002075195312	232.1258239746094	-507.1537780761719	75.68453216552734	191.5237274169922	-453.9931945800781	380.7591857910156	191.8171234130859	-343.357666015625	70.09408569335938	114.8197708129883	-415.70556640625	66.55352020263672	90.46837615966797	-424.1064147949219	61.76204681396484	191.1675109863281	-582.8885498046875	65.66138458251953	144.4547271728516	-721.1328735351562	718.8854370117188	324.5727844238281	-711.7816162109375	824.7274169921875	301.2156372070312	nan	nan	nan	nan	nan	nan	
280	2.79	-781.0613403320312	967.1065673828125	142.8158874511719	-795.4288940429688	965.2772827148438	11.59893035888672	-786.38916015625	1049.01953125	74.79021453857422	-546.0665893554688	1201.996215820312	65.01645660400391	-797.8540649414062	1149.098388671875	57.76898193359375	-756.0916137695312	1396.214965820312	48.31899261474609	-601.8931884765625	1320.678100585938	65.19839477539062	-804.98046875	1249.791137695312	102.7810287475586	-766.4989013671875	1363.6943359375	-54.30784606933594	-677.484375	1384.223754882812	-96.97151947021484	-696.939697265625	1272.621704101562	-176.3965454101562	-653.1070556640625	1088.91357421875	-224.3097076416016	-701.7149658203125	1048.58837890625	-165.23779296875	-469.0027770996094	964.196044921875	-210.0792846679688	-507.874755859375	928.8704223632812	-274.1658325195312	-597.6715698242188	1011.757751464844	-246.6778411865234	-360.5179748535156	825.6444702148438	-237.7156677246094	-442.507568359375	871.3999633789062	-279.06201171875	-397.6453552246094	903.2243041992188	-245.7118072509766	-719.0364990234375	1372.7734375	207.0328369140625	-750.1100463867188	1311.00390625	257.6341247558594	-796.7117919921875	1052.5791015625	278.6224060058594	-780.4121704101562	1044.224731445312	185.4736938476562	-770.84716796875	820.5687255859375	334.7643737792969	-790.8639526367188	985.9803466796875	302.505615234375	-741.1725463867188	651.6444702148438	294.9342956542969	-783.161376953125	731.121826171875	333.5010070800781	-708.3143310546875	1582.827270507812	147.5058746337891	-561.2195434570312	1580.498046875	12.61986446380615	-576.31591796875	1582.6650390625	134.934814453125	-707.7252807617188	1579.681762695312	-14.93142700195312	-719.430908203125	951.7220458984375	-115.3195190429688	-684.55810546875	948.816162109375	245.8259735107422	-562.9577026367188	961.3433837890625	175.3232421875	-601.8218994140625	945.3365478515625	-84.57067108154297	-733.5299682617188	458.9230346679688	-62.67037582397461	-720.8899536132812	601.7930908203125	-87.08460998535156	-887.5723876953125	43.86419677734375	12.89175128936768	-812.685791015625	235.3180389404297	-34.91812133789062	-678.435791015625	45.61892318725586	94.31121063232422	-760.1082153320312	47.50249481201172	117.5606307983398	-760.5198974609375	40.73995590209961	11.20259857177734	-928.7828369140625	47.21453857421875	66.32260131835938	-458.1471252441406	506.0035400390625	199.6047973632812	-543.4635009765625	753.9428100585938	231.0733337402344	-466.5348205566406	71.75911712646484	187.0561065673828	-433.979248046875	379.9339599609375	189.8423614501953	-304.5850219726562	75.84101104736328	106.7245712280273	-376.9711303710938	68.82289123535156	83.93211364746094	-382.8920593261719	62.17183685302734	184.7413940429688	-542.3212890625	57.89140319824219	141.4256591796875	-716.9091796875	715.0343627929688	322.7017211914062	-705.404296875	820.825439453125	299.87109375	nan	nan	nan	nan	nan	nan	
281	2.8	-769.2152099609375	964.13134765625	143.8348541259766	-784.5663452148438	962.5787353515625	12.79878807067871	-775.1318969726562	1046.42626953125	75.66455078125	-534.8890991210938	1199.010864257812	64.48181915283203	-787.2477416992188	1146.34033203125	58.58993530273438	-744.779296875	1393.413818359375	48.12954711914062	-590.8211059570312	1317.671752929688	64.72554016113281	-793.9157104492188	1246.9375	102.5390396118164	-755.6520385742188	1360.932495117188	-54.49734497070312	-666.606201171875	1381.32080078125	-97.36334228515625	-685.9481201171875	1269.462280273438	-176.5877838134766	-640.7089233398438	1086.42578125	-224.5426177978516	-688.3170776367188	1045.09765625	-165.4529724121094	-453.677734375	967.3336791992188	-211.5132141113281	-492.0516967773438	930.7068481445312	-275.3466491699219	-583.9678955078125	1011.007202148438	-247.2118225097656	-341.0600891113281	832.2775268554688	-240.0767364501953	-425.04345703125	875.3930053710938	-280.764404296875	-380.7846984863281	908.6290893554688	-247.7695159912109	-707.8248901367188	1369.698852539062	206.7364807128906	-739.1544799804688	1307.960693359375	257.1077575683594	-787.0548095703125	1049.697509765625	277.117431640625	-769.9661865234375	1041.417236328125	184.1083984375	-764.5176391601562	817.5744018554688	333.049072265625	-782.0828247070312	983.1773681640625	300.9822387695312	-737.5967407226562	648.2635498046875	292.7951965332031	-778.2575073242188	728.3936157226562	331.4912719726562	-697.0664672851562	1579.778198242188	147.4803314208984	-550.0779418945312	1577.660278320312	12.4822473526001	-565.0398559570312	1579.650512695312	134.7968139648438	-696.63232421875	1576.88720703125	-14.96932697296143	-709.4827880859375	949.014892578125	-114.7625427246094	-671.83984375	945.701416015625	246.0302124023438	-550.8325805664062	958.6571044921875	174.5330657958984	-591.9030151367188	942.67529296875	-85.19842529296875	-728.5985107421875	457.3100280761719	-62.97564315795898	-714.47998046875	600.1375732421875	-87.51852416992188	-887.6644287109375	44.14810943603516	13.53027725219727	-810.5428466796875	234.6338195800781	-34.86188888549805	-677.956787109375	45.20901107788086	94.30571746826172	-759.9136352539062	46.99078750610352	117.8260269165039	-760.6536865234375	40.93304443359375	11.34582042694092	-928.8876953125	47.54682922363281	66.98896026611328	-445.8852844238281	503.246337890625	198.7199554443359	-531.7279052734375	750.8828125	230.1365203857422	-427.0712280273438	69.08267974853516	182.4423675537109	-414.5809936523438	379.0564880371094	187.8719787597656	-267.5290222167969	82.30110931396484	98.62265777587891	-339.7864990234375	71.94039154052734	77.32202911376953	-343.1011962890625	63.74116897583008	178.2315063476562	-502.7955322265625	51.4437255859375	138.1812591552734	-712.3558959960938	711.1050415039062	320.9570922851562	-698.724365234375	816.8008422851562	298.6332397460938	nan	nan	nan	nan	nan	nan	
282	2.81	-757.208740234375	960.9271240234375	144.7821807861328	-773.56494140625	959.6436767578125	13.93812465667725	-763.8239135742188	1043.583740234375	76.50030517578125	-523.570068359375	1195.854370117188	64.00716400146484	-776.3307495117188	1143.394653320312	59.47135543823242	-733.352294921875	1390.425903320312	47.97457122802734	-579.6015625	1314.493774414062	64.29875183105469	-782.7022094726562	1243.903076171875	102.4160461425781	-744.6686401367188	1357.966796875	-54.64681243896484	-655.6248168945312	1378.195068359375	-97.74327087402344	-674.88037109375	1266.035766601562	-176.6963043212891	-628.382080078125	1083.6171875	-224.5746154785156	-674.963134765625	1041.357788085938	-165.4575958251953	-438.7350158691406	969.9429321289062	-212.6651763916016	-476.5284423828125	932.223388671875	-276.3385925292969	-570.4454956054688	1009.940979003906	-247.5252532958984	-322.2893371582031	838.390380859375	-242.3284454345703	-408.0003051757812	879.0173950195312	-282.3306274414062	-364.4249572753906	913.504150390625	-249.5847015380859	-696.5011596679688	1366.451293945312	206.4805450439453	-728.0343627929688	1304.7177734375	256.6241760253906	-777.1844482421875	1046.625366210938	275.6608581542969	-759.3069458007812	1038.410278320312	182.7900848388672	-757.8670043945312	814.4474487304688	331.3595581054688	-773.0592651367188	980.1976318359375	299.5108947753906	-733.51123046875	644.8118896484375	290.7746887207031	-772.9393310546875	725.5564575195312	329.5157470703125	-685.8078002929688	1576.543701171875	147.4343872070312	-538.9362182617188	1574.695678710938	12.31516647338867	-553.7560424804688	1576.531494140625	134.6328887939453	-685.5368041992188	1573.859985351562	-15.01342391967773	-699.4343872070312	946.1415405273438	-113.9793014526367	-658.9948120117188	942.32177734375	246.1930541992188	-538.5943603515625	955.7454833984375	173.698974609375	-581.8751220703125	939.8577880859375	-85.91145324707031	-723.1677856445312	455.5245056152344	-63.1631965637207	-707.6199340820312	598.29833984375	-87.89513397216797	-887.7769165039062	44.44500350952148	14.17960643768311	-808.1448364257812	233.9028930664062	-34.73704147338867	-677.4913940429688	44.74273681640625	94.40440368652344	-759.7686767578125	46.46883392333984	118.1174240112305	-760.7628173828125	41.12744140625	11.55270004272461	-928.9578247070312	47.92539215087891	67.69432830810547	-433.789794921875	500.1352844238281	197.8987121582031	-520.1312866210938	747.364501953125	229.332275390625	-389.2807922363281	67.56340026855469	177.7032012939453	-395.8204650878906	378.1515808105469	185.8993072509766	-232.4946899414062	89.33355712890625	90.69256591796875	-304.4862976074219	75.79922485351562	70.73341369628906	-305.217041015625	66.35120391845703	171.7441101074219	-464.8387451171875	46.29988098144531	134.7063140869141	-707.3826293945312	707.1293334960938	319.3358154296875	-691.7183227539062	812.6926879882812	297.5050354003906	nan	nan	nan	nan	nan	nan	
